<?xml version="1.0" standalone="no"?>
<!DOCTYPE svg PUBLIC "-//W3C//DTD SVG 1.1//EN" "http://www.w3.org/Graphics/SVG/1.1/DTD/svg11.dtd" >
<svg xmlns="http://www.w3.org/2000/svg" xmlns:xlink="http://www.w3.org/1999/xlink" version="1.1" viewBox="-10 0 266 256">
   <path fill="currentColor"
d="M183 40q3 6 -1 8q-9 7 -10 14q-12 51 -28 62q-4 2 -7 7t-6 0l-4 -4q-2 -1 -3 -3q-6 -3 -12 -11q-4 2 -10 4q-3 1 -4 1q0 2 1 3l2 2q-1 5 -3 4q-9 -2 -12 -7q-6 -6 -10 -9q-4 -2 3 -12q-18 -26 -12 -56q0 -4 1 -1q3 15 3 24q2 27 24 49q15 -5 36 -14q-1 -5 4 -5q0 1 1 1
q7 3 10 2q2 1 1 3q0 1 -2 1q-12 1 -30 9q5 6 19 7q11 2 17 -9q12 -17 19 -74q0 -14 -17 -18q-23 1 -46 10q-10 5 -22 4q-4 0 0 -2q45 -13 66 -14q13 -1 32 24zM185 109q21 5 38 15q3 6 -2 9q-5 2 -9 -3q-11 -9 -28 -19q-5 -1 1 -2zM110 132q5 4 14 6q3 2 3 5q1 3 -2 3
q-9 3 -17 -12q-3 -4 2 -2zM166 148q-9 -6 1 -2q33 16 57 36q4 6 0 6q-3 1 -2 1q-3 1 -5 2q-88 32 -141 -23q-4 -5 1 -1q53 50 129 25q6 -2 2 -8q-13 -19 -42 -36zM52 160q-4 5 -5 16q-1 6 2 11q-2 8 -8 4q-4 -3 -2 -17q0 -5 2 -7q5 -2 9 -9q4 -2 2 2zM107 32q17 13 13 13
q-2 7 -1 14q15 -3 18 -10q1 -4 6 -2q2 1 6 2q5 1 7 1q2 1 2 3q-1 1 -3 1q-8 1 -33 8q2 0 -4 1q-4 26 -24 44q-6 6 -1 -2q17 -20 19 -40q-10 4 -26 5q-8 0 0 -2q3 0 10 -2q10 -3 17 -5q0 -17 -7 -27q-3 -4 1 -2zM127 75q13 7 18 12l4 2q3 2 2 6q-4 4 -9 -1q-2 -1 -4 -3
q-6 -8 -13 -14q-5 -4 2 -2z" />
</svg>
